# xmcd
#
# Track frame offsets:
#	150
#	14775
#	31130
#	43770
#	55677
#	84512
#	100322
#	114842
#	132170
#	151630
#	163572
#	190385
#	204917
#	231792
#
# Disc length: 3540 seconds
#
# Revision: 1
# Processed by: cddbd v1.5.2PL0 Copyright (c) Steve Scherf et al.
# Submitted via: EasyCDDAExtractor 10.0.2.1
#
DISCID=a80dd20e
DTITLE=Various Artist - Hard Times
DYEAR=1991
DGENRE=Blues
TTITLE0=Smokey Wilson - Fine little Mama
TTITLE1=Curtis Jack Griffin - I get so lonesome
TTITLE2=Hollywood Fats - Tribute to T Bone Walker
TTITLE3=Rasheed Abdullah - I shoulda kept on Runnin
TTITLE4=Smokey Wilson - Anna Lee
TTITLE5=Johnny Dyer - So glad i'm livin'
TTITLE6=Smokey Wilson - Goin' upside your Head
TTITLE7=Cardell Boyette - I miss so you
TTITLE8=George Harmonica Smith - Hard Times
TTITLE9=Alex Schultz - Groovin' with Alex
TTITLE10=Cardell Boyette - Black Cat Bone
TTITLE11=Smokey Wilson - Shake for me
TTITLE12=Rasheed Abdullah - Racetrack Blues
TTITLE13=Zach Zunis - 7-11 Cocktail
EXTD=
EXTT0=
EXTT1=
EXTT2=
EXTT3=
EXTT4=
EXTT5=
EXTT6=
EXTT7=
EXTT8=
EXTT9=
EXTT10=
EXTT11=
EXTT12=
EXTT13=
PLAYORDER=
